# xmcd CD database file
#
# Track frame offsets:
#	150
#	14275
#	32557
#	50797
#	69355
#	85600
#	91420
#	115902
#	142800
#	164077
#	187460
#
# Disc length: 2867 seconds
#
# Revision: 0
# Processed by: cddbd v1.5PL3 Copyright (c) Steve Scherf et al.
# Submitted via: CDex 1.51
#
DISCID=940b310b
DTITLE=RIP SLYME - LIVE AT BUDOKAN 2002.07.25
DYEAR=1900
DGENRE=JPop
TTITLE0=By the way
TTITLE1=Tokyo Classic
TTITLE2=FRESH
TTITLE3=DISCO-MIMUNICATION
TTITLE4=バンザイ
TTITLE5=MC
TTITLE6=ジャッジメント
TTITLE7=Freak Show
TTITLE8=FUNKASTIC
TTITLE9=楽園ベイベー
TTITLE10=STEPPER'S DELIGHT
EXTD=
EXTT0=
EXTT1=
EXTT2=
EXTT3=
EXTT4=
EXTT5=
EXTT6=
EXTT7=
EXTT8=
EXTT9=
EXTT10=
PLAYORDER=
